Coordinates
version=1
nRows=8
nColumns=63
inDegrees=yes

Units are S.I. units (second, meters, Newtons, ...)
If the header above contains a line with 'inDegrees', this indicates whether rotational values are in degrees (yes) or radians (no).

endheader
time	pelvis_tilt	pelvis_list	pelvis_rotation	pelvis_tx	pelvis_ty	pelvis_tz	hip_flexion_r	hip_adduction_r	hip_rotation_r	knee_angle_r	knee_angle_r_beta	ankle_angle_r	subtalar_angle_r	mtp_angle_r	hip_flexion_l	hip_adduction_l	hip_rotation_l	knee_angle_l	knee_angle_l_beta	ankle_angle_l	subtalar_angle_l	mtp_angle_l	L5_S1_Flex_Ext	L5_S1_Lat_Bending	L5_S1_axial_rotation	L4_L5_Flex_Ext	L4_L5_Lat_Bending	L4_L5_axial_rotation	L3_L4_Flex_Ext	L3_L4_Lat_Bending	L3_L4_axial_rotation	L2_L3_Flex_Ext	L2_L3_Lat_Bending	L2_L3_axial_rotation	L1_L2_Flex_Ext	L1_L2_Lat_Bending	L1_L2_axial_rotation	L1_T12_Flex_Ext	L1_T12_Lat_Bending	L1_T12_axial_rotation	Abs_r3	Abs_r2	Abs_r1	Abs_t1	Abs_t2	neck_flexion	neck_bending	neck_rotation	arm_flex_r	arm_add_r	arm_rot_r	elbow_flex_r	pro_sup_r	wrist_flex_r	wrist_dev_r	arm_flex_l	arm_add_l	arm_rot_l	elbow_flex_l	pro_sup_l	wrist_flex_l	wrist_dev_l
2.981132	-2.025831	-3.357502	91.598596	0.213858	0.878292	0.607290	-0.447633	-1.461652	-3.013645	7.923178	0.138286	28.319675	3.778685	0.000000	-0.001789	3.434818	5.327249	5.960483	0.104030	24.778775	-13.647381	0.000000	0.118124	0.261805	0.134198	0.219368	0.348200	0.142586	0.194066	0.636552	0.142586	0.135004	0.636552	0.117423	0.109690	0.533872	0.109036	0.067496	0.405535	0.100649	0.843748	2.961587	0.746370	0.000000	0.000000	27.995506	-2.677420	14.963676	12.202348	-15.862116	110.230521	7.054189	3.577281	-4.406015	-6.484341	11.909311	-8.959823	155.172198	4.858053	6.243688	-9.691620	-10.130966
3.000000	-2.163233	-3.442350	91.497166	0.213703	0.878217	0.608389	-0.204539	-1.689764	-3.307545	8.190050	0.142943	28.312111	4.168402	0.000000	0.275352	3.615275	5.242793	6.231280	0.108756	24.770273	-13.799581	0.000000	0.109820	0.248164	0.167988	0.203946	0.330058	0.178488	0.180423	0.603386	0.178488	0.125513	0.603386	0.146990	0.101979	0.506056	0.136490	0.062751	0.384406	0.125991	0.784432	2.807280	0.934300	0.000000	0.000000	27.968313	-2.622493	14.840762	12.291129	-15.914629	110.079619	7.049394	3.614334	-4.329057	-6.583256	11.957495	-8.931595	155.777665	4.486913	5.794575	-9.281004	-10.060505
3.018868	-2.288164	-3.557668	91.429570	0.213501	0.878138	0.609560	0.075387	-1.905354	-3.668551	8.442323	0.147346	28.329759	4.644130	0.000000	0.614863	3.773216	5.000111	6.552837	0.114369	24.819572	-13.696613	0.000000	0.104525	0.235676	0.189895	0.194113	0.313449	0.201764	0.171724	0.573022	0.201764	0.119461	0.573022	0.166159	0.097062	0.480590	0.154290	0.059725	0.365062	0.142422	0.746610	2.666010	1.056141	0.000000	0.000000	27.945938	-2.582497	14.750926	12.409756	-15.938701	110.132460	6.972793	3.634701	-4.260353	-6.689559	12.014166	-8.922031	156.146699	4.170983	5.587819	-8.906283	-9.930306
3.037736	-2.398275	-3.699614	91.396254	0.213248	0.878057	0.610743	0.386723	-2.110097	-4.148986	8.677588	0.151452	28.397740	5.294207	0.000000	0.993118	3.909755	4.668418	6.889649	0.120247	24.900665	-13.418667	0.000000	0.102705	0.225052	0.196370	0.190733	0.299319	0.208644	0.168734	0.547190	0.208644	0.117381	0.547190	0.171824	0.095372	0.458925	0.159551	0.058686	0.348605	0.147278	0.733610	2.545829	1.092153	0.000000	0.000000	27.928761	-2.537956	14.733731	12.555485	-15.942289	110.424010	6.837085	3.588912	-4.190819	-6.802074	12.063883	-8.936303	156.238915	3.926753	5.610825	-8.607255	-9.763273
3.056604	-2.486234	-3.860705	91.401051	0.212947	0.877972	0.611877	0.710793	-2.282834	-4.582557	8.875149	0.154901	28.491757	5.892225	0.000000	1.376368	4.022893	4.428461	7.190964	0.125506	24.938065	-13.221201	0.000000	0.104794	0.217129	0.187597	0.194612	0.288782	0.199322	0.172165	0.527928	0.199322	0.119769	0.527928	0.164148	0.097311	0.442770	0.152423	0.059879	0.336333	0.140698	0.748530	2.456210	1.043360	0.000000	0.000000	27.918411	-2.505127	14.771552	12.708307	-15.932269	110.802311	6.656750	3.598098	-4.152302	-6.922664	12.108441	-8.951221	156.312860	3.738074	5.620100	-8.381203	-9.589572
3.075472	-2.547633	-4.036998	91.431303	0.212615	0.877881	0.612921	1.043739	-2.420771	-5.006720	9.039026	0.157761	28.632181	6.499434	0.000000	1.761375	4.100527	4.134356	7.465055	0.130290	25.002570	-12.898783	0.000000	0.111522	0.212740	0.164962	0.207108	0.282944	0.175272	0.183220	0.517256	0.175272	0.127459	0.517256	0.144342	0.103560	0.433820	0.134032	0.063724	0.329534	0.123721	0.796592	2.406559	0.917469	0.000000	0.000000	27.915504	-2.467326	14.892579	12.868336	-15.909457	111.433367	6.426727	3.592966	-4.163043	-7.035711	12.137521	-8.968252	156.293248	3.606834	5.628804	-8.214901	-9.428405
3.094340	-2.581078	-4.218708	91.490527	0.212261	0.877781	0.613839	1.366875	-2.516278	-5.348465	9.162309	0.159912	28.799866	7.002839	0.000000	2.131124	4.146807	3.874004	7.705836	0.134492	25.071894	-12.568012	0.000000	0.122963	0.212029	0.129927	0.228355	0.281998	0.138048	0.202016	0.515527	0.138048	0.140535	0.515527	0.113686	0.114184	0.432369	0.105566	0.070261	0.328433	0.097446	0.878313	2.398513	0.722617	0.000000	0.000000	27.919785	-2.419947	15.094747	13.029184	-15.884310	112.288730	6.176614	3.565366	-4.230312	-7.139125	12.145826	-8.980226	156.308617	3.502464	5.580479	-8.074493	-9.273750
3.113208	-2.590144	-4.392816	91.563523	0.211892	0.877674	0.614608	1.672674	-2.583356	-5.737741	9.269421	0.161782	29.018512	7.570769	0.000000	2.460860	4.160037	3.587967	7.899455	0.137871	25.151840	-12.149398	0.000000	0.138045	0.214711	0.088151	0.256364	0.285565	0.093660	0.226795	0.522048	0.093660	0.157772	0.522048	0.077132	0.128189	0.437838	0.071623	0.078879	0.332587	0.066113	0.986044	2.428850	0.490268	0.000000	0.000000	27.932314	-2.364385	15.353774	13.182518	-15.872381	113.187382	5.945748	3.573951	-4.346745	-7.216890	12.133409	-8.990032	156.127082	3.448841	5.637975	-8.015247	-9.190345
